REM DIRINDEX 1\2\4,1\2\5,1\2\6,1\3\7,1\3\8
REM DIRNAME cjc128,folder01,folder02,folder03,folder04,folder05,folder06,folder07
TITLE ""
FILE "005_Lesson 04_Output_Stage.mp3" MP3
  TRACK 01 AUDIO
    TITLE "0:"
    INDEX 01 00:00:00
  TRACK 02 AUDIO
    TITLE "6:cjc128_0204"
    INDEX 01 00:00:09
  TRACK 03 AUDIO
    TITLE "0:"
    INDEX 01 00:02:71
  TRACK 04 AUDIO
    TITLE "6:cjc128_0205"
    INDEX 01 00:03:12
  TRACK 05 AUDIO
    TITLE "0:"
    INDEX 01 00:04:46
  TRACK 06 AUDIO
    TITLE "4:cjc128_0206"
    INDEX 01 00:05:24
  TRACK 07 AUDIO
    TITLE "0:"
    INDEX 01 00:09:14
  TRACK 08 AUDIO
    TITLE "5:cjc128_0207"
    INDEX 01 00:12:65
  TRACK 09 AUDIO
    TITLE "0:"
    INDEX 01 00:16:02
  TRACK 10 AUDIO
    TITLE "6:cjc128_0208"
    INDEX 01 00:16:55
  TRACK 11 AUDIO
    TITLE "0:"
    INDEX 01 00:18:09
  TRACK 12 AUDIO
    TITLE "4:cjc128_0209"
    INDEX 01 00:18:62
  TRACK 13 AUDIO
    TITLE "0:"
    INDEX 01 00:22:60
  TRACK 14 AUDIO
    TITLE "5:cjc128_0210"
    INDEX 01 00:26:50
  TRACK 15 AUDIO
    TITLE "0:"
    INDEX 01 00:30:06
  TRACK 16 AUDIO
    TITLE "6:cjc128_0211"
    INDEX 01 00:30:57
  TRACK 17 AUDIO
    TITLE "0:"
    INDEX 01 00:32:17
  TRACK 18 AUDIO
    TITLE "4:cjc128_0212"
    INDEX 01 00:32:68
  TRACK 19 AUDIO
    TITLE "0:"
    INDEX 01 00:35:59
  TRACK 20 AUDIO
    TITLE "5:cjc128_0213"
    INDEX 01 00:38:45
  TRACK 21 AUDIO
    TITLE "0:"
    INDEX 01 00:40:72
  TRACK 22 AUDIO
    TITLE "6:cjc128_0214"
    INDEX 01 00:41:47
  TRACK 23 AUDIO
    TITLE "0:"
    INDEX 01 00:42:63
  TRACK 24 AUDIO
    TITLE "4:cjc128_0215"
    INDEX 01 00:43:42
  TRACK 25 AUDIO
    TITLE "0:"
    INDEX 01 00:45:73
  TRACK 26 AUDIO
    TITLE "5:cjc128_0216"
    INDEX 01 00:48:24
  TRACK 27 AUDIO
    TITLE "0:"
    INDEX 01 00:50:21
  TRACK 28 AUDIO
    TITLE "6:cjc128_0217"
    INDEX 01 00:50:72
  TRACK 29 AUDIO
    TITLE "0:"
    INDEX 01 00:52:30
  TRACK 30 AUDIO
    TITLE "4:cjc128_0218"
    INDEX 01 00:53:11
  TRACK 31 AUDIO
    TITLE "0:"
    INDEX 01 00:56:10
  TRACK 32 AUDIO
    TITLE "5:cjc128_0219"
    INDEX 01 00:59:14
  TRACK 33 AUDIO
    TITLE "0:"
    INDEX 01 01:01:42
  TRACK 34 AUDIO
    TITLE "6:cjc128_0220"
    INDEX 01 01:02:20
  TRACK 35 AUDIO
    TITLE "0:"
    INDEX 01 01:03:55
  TRACK 36 AUDIO
    TITLE "4:cjc128_0221"
    INDEX 01 01:04:41
  TRACK 37 AUDIO
    TITLE "0:"
    INDEX 01 01:07:15
  TRACK 38 AUDIO
    TITLE "5:cjc128_0222"
    INDEX 01 01:10:18
  TRACK 39 AUDIO
    TITLE "0:"
    INDEX 01 01:12:56
  TRACK 40 AUDIO
    TITLE "6:cjc128_0223"
    INDEX 01 01:13:36
  TRACK 41 AUDIO
    TITLE "0:"
    INDEX 01 01:15:01
  TRACK 42 AUDIO
    TITLE "4:cjc128_0224"
    INDEX 01 01:15:58
  TRACK 43 AUDIO
    TITLE "0:"
    INDEX 01 01:18:45
  TRACK 44 AUDIO
    TITLE "5:cjc128_0225"
    INDEX 01 01:21:49
  TRACK 45 AUDIO
    TITLE "0:"
    INDEX 01 01:24:18
  TRACK 46 AUDIO
    TITLE "6:cjc128_0226"
    INDEX 01 01:24:71
  TRACK 47 AUDIO
    TITLE "0:"
    INDEX 01 01:26:36
  TRACK 48 AUDIO
    TITLE "4:cjc128_0227"
    INDEX 01 01:27:20
  TRACK 49 AUDIO
    TITLE "0:"
    INDEX 01 01:30:48
  TRACK 50 AUDIO
    TITLE "5:cjc128_0228"
    INDEX 01 01:33:52
  TRACK 51 AUDIO
    TITLE "0:"
    INDEX 01 01:36:17
  TRACK 52 AUDIO
    TITLE "6:cjc128_0229"
    INDEX 01 01:36:64
  TRACK 53 AUDIO
    TITLE "0:"
    INDEX 01 01:38:34
  TRACK 54 AUDIO
    TITLE "4:cjc128_0230"
    INDEX 01 01:39:14
  TRACK 55 AUDIO
    TITLE "0:"
    INDEX 01 01:42:41
  TRACK 56 AUDIO
    TITLE "5:cjc128_0231"
    INDEX 01 01:46:06
  TRACK 57 AUDIO
    TITLE "0:"
    INDEX 01 01:49:04
  TRACK 58 AUDIO
    TITLE "6:cjc128_0232"
    INDEX 01 01:49:59
  TRACK 59 AUDIO
    TITLE "0:"
    INDEX 01 01:51:25
  TRACK 60 AUDIO
    TITLE "4:cjc128_0233"
    INDEX 01 01:52:10
  TRACK 61 AUDIO
    TITLE "0:"
    INDEX 01 01:55:18
  TRACK 62 AUDIO
    TITLE "5:cjc128_0234"
    INDEX 01 01:58:56
  TRACK 63 AUDIO
    TITLE "0:"
    INDEX 01 02:01:35
  TRACK 64 AUDIO
    TITLE "6:cjc128_0235"
    INDEX 01 02:02:20
  TRACK 65 AUDIO
    TITLE "0:"
    INDEX 01 02:03:63
  TRACK 66 AUDIO
    TITLE "4:cjc128_0236"
    INDEX 01 02:04:45
  TRACK 67 AUDIO
    TITLE "0:"
    INDEX 01 02:07:06
  TRACK 68 AUDIO
    TITLE "5:cjc128_0237"
    INDEX 01 02:10:06
  TRACK 69 AUDIO
    TITLE "0:"
    INDEX 01 02:12:36
  TRACK 70 AUDIO
    TITLE "6:cjc128_0238"
    INDEX 01 02:13:16
  TRACK 71 AUDIO
    TITLE "0:"
    INDEX 01 02:14:47
  TRACK 72 AUDIO
    TITLE "4:cjc128_0239"
    INDEX 01 02:15:27
  TRACK 73 AUDIO
    TITLE "0:"
    INDEX 01 02:17:67
  TRACK 74 AUDIO
    TITLE "5:cjc128_0240"
    INDEX 01 02:20:16
  TRACK 75 AUDIO
    TITLE "0:"
    INDEX 01 02:22:17
  TRACK 76 AUDIO
    TITLE "6:cjc128_0241"
    INDEX 01 02:22:70
  TRACK 77 AUDIO
    TITLE "0:"
    INDEX 01 02:24:36
  TRACK 78 AUDIO
    TITLE "4:cjc128_0242"
    INDEX 01 02:25:14
  TRACK 79 AUDIO
    TITLE "0:"
    INDEX 01 02:27:18
  TRACK 80 AUDIO
    TITLE "5:cjc128_0243"
    INDEX 01 02:29:49
  TRACK 81 AUDIO
    TITLE "0:"
    INDEX 01 02:31:50
  TRACK 82 AUDIO
    TITLE "6:cjc128_0244"
    INDEX 01 02:32:24
  TRACK 83 AUDIO
    TITLE "0:"
    INDEX 01 02:33:27
  TRACK 84 AUDIO
    TITLE "4:cjc128_0245"
    INDEX 01 02:34:11
  TRACK 85 AUDIO
    TITLE "0:"
    INDEX 01 02:37:21
  TRACK 86 AUDIO
    TITLE "5:cjc128_0246"
    INDEX 01 02:40:00
  TRACK 87 AUDIO
    TITLE "0:"
    INDEX 01 02:41:73
  TRACK 88 AUDIO
    TITLE "6:cjc128_0247"
    INDEX 01 02:42:65
  TRACK 89 AUDIO
    TITLE "0:"
    INDEX 01 02:44:13
  TRACK 90 AUDIO
    TITLE "4:cjc128_0248"
    INDEX 01 02:44:70
  TRACK 91 AUDIO
    TITLE "0:"
    INDEX 01 02:47:23
  TRACK 92 AUDIO
    TITLE "5:cjc128_0249"
    INDEX 01 02:50:19
  TRACK 93 AUDIO
    TITLE "0:"
    INDEX 01 02:52:16
  TRACK 94 AUDIO
    TITLE "6:cjc128_0250"
    INDEX 01 02:53:22
  TRACK 95 AUDIO
    TITLE "0:"
    INDEX 01 02:54:41
  TRACK 96 AUDIO
    TITLE "4:cjc128_0251"
    INDEX 01 02:55:27
  TRACK 97 AUDIO
    TITLE "0:"
    INDEX 01 02:57:70
  TRACK 98 AUDIO
    TITLE "5:cjc128_0252"
    INDEX 01 03:00:51
  TRACK 99 AUDIO
    TITLE "0:"
    INDEX 01 03:02:74
  TRACK 100 AUDIO
    TITLE "6:cjc128_0253"
    INDEX 01 03:03:53
  TRACK 101 AUDIO
    TITLE "0:"
    INDEX 01 03:05:05
  TRACK 102 AUDIO
    TITLE "4:cjc128_0254"
    INDEX 01 03:05:62
  TRACK 103 AUDIO
    TITLE "0:"
    INDEX 01 03:08:12
  TRACK 104 AUDIO
    TITLE "5:cjc128_0255"
    INDEX 01 03:10:52
  TRACK 105 AUDIO
    TITLE "0:"
    INDEX 01 03:12:60
  TRACK 106 AUDIO
    TITLE "6:cjc128_0256"
    INDEX 01 03:13:42
  TRACK 107 AUDIO
    TITLE "0:"
    INDEX 01 03:14:63
  TRACK 108 AUDIO
    TITLE "4:cjc128_0257"
    INDEX 01 03:15:49
  TRACK 109 AUDIO
    TITLE "0:"
    INDEX 01 03:18:02
  TRACK 110 AUDIO
    TITLE "5:cjc128_0258"
    INDEX 01 03:21:00
  TRACK 111 AUDIO
    TITLE "0:"
    INDEX 01 03:23:21
  TRACK 112 AUDIO
    TITLE "6:cjc128_0259"
    INDEX 01 03:24:05
  TRACK 113 AUDIO
    TITLE "0:"
    INDEX 01 03:25:37
  TRACK 114 AUDIO
    TITLE "4:cjc128_0260"
    INDEX 01 03:26:15
  TRACK 115 AUDIO
    TITLE "0:"
    INDEX 01 03:29:02
  TRACK 116 AUDIO
    TITLE "5:cjc128_0261"
    INDEX 01 03:31:36
  TRACK 117 AUDIO
    TITLE "0:"
    INDEX 01 03:33:37
  TRACK 118 AUDIO
    TITLE "6:cjc128_0262"
    INDEX 01 03:34:17
  TRACK 119 AUDIO
    TITLE "0:"
    INDEX 01 03:35:42
  TRACK 120 AUDIO
    TITLE "4:cjc128_0263"
    INDEX 01 03:36:22
  TRACK 121 AUDIO
    TITLE "0:"
    INDEX 01 03:38:54
  TRACK 122 AUDIO
    TITLE "5:cjc128_0264"
    INDEX 01 03:41:42
  TRACK 123 AUDIO
    TITLE "0:"
    INDEX 01 03:44:05
  TRACK 124 AUDIO
    TITLE "6:cjc128_0265"
    INDEX 01 03:44:58
  TRACK 125 AUDIO
    TITLE "0:"
    INDEX 01 03:46:14
  TRACK 126 AUDIO
    TITLE "4:cjc128_0266"
    INDEX 01 03:46:69
  TRACK 127 AUDIO
    TITLE "0:"
    INDEX 01 03:49:57
  TRACK 128 AUDIO
    TITLE "5:cjc128_0267"
    INDEX 01 03:52:38
  TRACK 129 AUDIO
    TITLE "0:"
    INDEX 01 03:54:45
  TRACK 130 AUDIO
    TITLE "6:cjc128_0268"
    INDEX 01 03:55:37
  TRACK 131 AUDIO
    TITLE "0:"
    INDEX 01 03:56:54
  TRACK 132 AUDIO
    TITLE "4:cjc128_0269"
    INDEX 01 03:57:33
  TRACK 133 AUDIO
    TITLE "0:"
    INDEX 01 04:00:53
  TRACK 134 AUDIO
    TITLE "5:cjc128_0270"
    INDEX 01 04:03:58
  TRACK 135 AUDIO
    TITLE "0:"
    INDEX 01 04:06:21
  TRACK 136 AUDIO
    TITLE "6:cjc128_0271"
    INDEX 01 04:07:01
  TRACK 137 AUDIO
    TITLE "0:"
    INDEX 01 04:08:24
  TRACK 138 AUDIO
    TITLE "4:cjc128_0272"
    INDEX 01 04:09:05
  TRACK 139 AUDIO
    TITLE "0:"
    INDEX 01 04:12:13
  TRACK 140 AUDIO
    TITLE "5:cjc128_0273"
    INDEX 01 04:15:31
  TRACK 141 AUDIO
    TITLE "0:"
    INDEX 01 04:18:10
  TRACK 142 AUDIO
    TITLE "6:cjc128_0274"
    INDEX 01 04:18:71
  TRACK 143 AUDIO
    TITLE "0:"
    INDEX 01 04:20:03
  TRACK 144 AUDIO
    TITLE "4:cjc128_0275"
    INDEX 01 04:20:62
  TRACK 145 AUDIO
    TITLE "0:"
    INDEX 01 04:24:11
  TRACK 146 AUDIO
    TITLE "5:cjc128_0276"
    INDEX 01 04:27:01
  TRACK 147 AUDIO
    TITLE "0:"
    INDEX 01 04:29:28
